<svg width="128" height="128" viewBox="0 0 128 128" fill="none" xmlns="http://www.w3.org/2000/svg">
<g id="account_circle_24px">
<path id="icon/action/account_circle_24px" fill-rule="evenodd" clip-rule="evenodd" d="M64.0001 10.6665C34.5601 10.6665 10.6667 34.5598 10.6667 63.9998C10.6667 93.4398 34.5601 117.333 64.0001 117.333C93.4401 117.333 117.333 93.4398 117.333 63.9998C117.333 34.5598 93.4401 10.6665 64.0001 10.6665ZM37.7066 97.4932C39.9999 92.6932 53.9732 87.9998 63.9999 87.9998C74.0266 87.9998 88.0532 92.6932 90.2933 97.4932C83.0399 103.253 73.9199 106.667 63.9999 106.667C54.0799 106.667 44.9599 103.253 37.7066 97.4932ZM64.0003 77.3332C71.7869 77.3332 90.2936 80.4798 97.9202 89.7598C103.36 82.6132 106.667 73.7065 106.667 63.9998C106.667 40.4798 87.5203 21.3332 64.0003 21.3332C40.4803 21.3332 21.3336 40.4798 21.3336 63.9998C21.3336 73.7065 24.6403 82.6132 30.0803 89.7598C37.7069 80.4798 56.2136 77.3332 64.0003 77.3332ZM64.0003 31.9998C53.6536 31.9998 45.3336 40.3198 45.3336 50.6665C45.3336 61.0132 53.6536 69.3332 64.0003 69.3332C74.3469 69.3332 82.6669 61.0132 82.6669 50.6665C82.6669 40.3198 74.3469 31.9998 64.0003 31.9998ZM55.9999 50.6665C55.9999 55.0932 59.5732 58.6665 63.9999 58.6665C68.4266 58.6665 71.9999 55.0932 71.9999 50.6665C71.9999 46.2398 68.4266 42.6665 63.9999 42.6665C59.5732 42.6665 55.9999 46.2398 55.9999 50.6665Z" fill="white"/>
</g>
</svg>
